M48
;GenerationSoftware,Autodesk,EAGLE,9.7.0*%
;CreationDate,2025-03-19T18:28:42Z*%
FMAT,2
ICI,OFF
METRIC,TZ,000.000
T1C1.016
%
G90
M71
T1
X85240Y53970
X85240Y51430
X85240Y48890
X85240Y46350
X85240Y43810
X85240Y41270
X85240Y38730
X85240Y36190
X85240Y33650
X85240Y31110
X85240Y28570
X85240Y26030
X70000Y26030
X70000Y28570
X70000Y31110
X70000Y33650
X70000Y36190
X70000Y38730
X70000Y41270
X70000Y43810
X70000Y46350
X70000Y48890
X70000Y51430
X70000Y53970
X29210Y13970
X31750Y13970
X34290Y13970
X36830Y13970
X39370Y13970
X41910Y13970
X46990Y13970
X49530Y13970
X52070Y13970
X54610Y13970
X57150Y13970
X59690Y13970
X59690Y62230
X57150Y62230
X54610Y62230
X52070Y62230
X49530Y62230
X46990Y62230
X44450Y62230
X41910Y62230
X38100Y62230
X35560Y62230
X33020Y62230
X30480Y62230
X27940Y62230
X25400Y62230
X22860Y62230
X20320Y62230
X17780Y62230
X15240Y62230
X26670Y13970
X24130Y13970
M30